HIERARCHY
ROOT Hips
{
	OFFSET 0.053599 88.859886 3.107447
	CHANNELS 6 Xposition Yposition Zposition Zrotation Yrotation Xrotation 
	JOINT Spine
	{
		OFFSET -0.000000 8.814246 -2.080107
		CHANNELS 3 Zrotation Yrotation Xrotation
		JOINT Spine1
		{
			OFFSET 0.000000 8.844141 0.000000
			CHANNELS 3 Zrotation Yrotation Xrotation
			JOINT Spine2
			{
				OFFSET -0.000000 11.682268 0.000000
				CHANNELS 3 Zrotation Yrotation Xrotation
				JOINT Spine3
				{
					OFFSET 0.000000 11.746700 0.000000
					CHANNELS 3 Zrotation Yrotation Xrotation
					JOINT Neck
					{
						OFFSET -0.000000 17.658264 -0.000000
						CHANNELS 3 Zrotation Yrotation Xrotation
						JOINT Neck1
						{
							OFFSET -0.000000 5.101515 -0.000000
							CHANNELS 3 Zrotation Yrotation Xrotation
							JOINT Head
							{
								OFFSET 0.000000 5.101515 0.000000
								CHANNELS 3 Zrotation Yrotation Xrotation
								JOINT HeadEnd
								{
									OFFSET 0.000000 11.655085 0.000000
									CHANNELS 3 Zrotation Yrotation Xrotation
									End Site
									{
										OFFSET 0.000000 0.000000 0.000000
									}
								}
							}
						}
					}
					JOINT RightShoulder
					{
						OFFSET -2.625389 11.175210 0.000000
						CHANNELS 3 Zrotation Yrotation Xrotation
						JOINT RightArm
						{
							OFFSET -0.000000 10.434715 -0.000000
							CHANNELS 3 Zrotation Yrotation Xrotation
							JOINT RightForeArm
							{
								OFFSET -0.000000 29.628420 0.000000
								CHANNELS 3 Zrotation Yrotation Xrotation
								JOINT RightHand
								{
									OFFSET -0.000000 22.857611 0.000000
									CHANNELS 3 Zrotation Yrotation Xrotation
									JOINT RightHandThumb1
									{
										OFFSET -2.867323 3.959563 2.944291
										CHANNELS 3 Zrotation Yrotation Xrotation
										JOINT RightHandThumb2
										{
											OFFSET 0.000000 3.350399 0.000000
											CHANNELS 3 Zrotation Yrotation Xrotation
											JOINT RightHandThumb3
											{
												OFFSET 0.000000 3.756509 -0.000000
												CHANNELS 3 Zrotation Yrotation Xrotation
												JOINT RightHandThumb4
												{
													OFFSET 0.000000 3.147345 0.000000
													CHANNELS 3 Zrotation Yrotation Xrotation
													End Site
													{
														OFFSET 0.000000 0.000000 0.000000
													}
												}
											}
										}
									}
									JOINT RightHandIndex1
									{
										OFFSET -0.086752 10.030893 2.345280
										CHANNELS 3 Zrotation Yrotation Xrotation
										JOINT RightHandIndex2
										{
											OFFSET -0.000000 4.061090 0.000000
											CHANNELS 3 Zrotation Yrotation Xrotation
											JOINT RightHandIndex3
											{
												OFFSET -0.000000 3.248873 0.000000
												CHANNELS 3 Zrotation Yrotation Xrotation
												JOINT RightHandIndex4
												{
													OFFSET 0.000000 2.639709 -0.000000
													CHANNELS 3 Zrotation Yrotation Xrotation
													End Site
													{
														OFFSET 0.000000 0.000000 0.000000
													}
												}
											}
										}
									}
									JOINT RightHandMiddle1
									{
										OFFSET 0.104102 9.502952 0.006768
										CHANNELS 3 Zrotation Yrotation Xrotation
										JOINT RightHandMiddle2
										{
											OFFSET 0.000000 4.568727 0.000000
											CHANNELS 3 Zrotation Yrotation Xrotation
											JOINT RightHandMiddle3
											{
												OFFSET 0.000000 3.654981 -0.000000
												CHANNELS 3 Zrotation Yrotation Xrotation
												JOINT RightHandMiddle4
												{
													OFFSET -0.000000 2.741236 -0.000000
													CHANNELS 3 Zrotation Yrotation Xrotation
													End Site
													{
														OFFSET 0.000000 0.000000 0.000000
													}
												}
											}
										}
									}
									JOINT RightHandRing1
									{
										OFFSET 0.086752 8.921708 -2.267442
										CHANNELS 3 Zrotation Yrotation Xrotation
										JOINT RightHandRing2
										{
											OFFSET -0.000000 4.061090 0.000000
											CHANNELS 3 Zrotation Yrotation Xrotation
											JOINT RightHandRing3
											{
												OFFSET 0.000000 3.654981 -0.000000
												CHANNELS 3 Zrotation Yrotation Xrotation
												JOINT RightHandRing4
												{
													OFFSET 0.000000 2.741236 -0.000000
													CHANNELS 3 Zrotation Yrotation Xrotation
													End Site
													{
														OFFSET 0.000000 0.000000 0.000000
													}
												}
											}
										}
									}
									JOINT RightHandPinky1
									{
										OFFSET -0.173504 7.976997 -4.467199
										CHANNELS 3 Zrotation Yrotation Xrotation
										JOINT RightHandPinky2
										{
											OFFSET 0.000000 3.350399 -0.000000
											CHANNELS 3 Zrotation Yrotation Xrotation
											JOINT RightHandPinky3
											{
												OFFSET -0.000000 2.842763 0.000000
												CHANNELS 3 Zrotation Yrotation Xrotation
												JOINT RightHandPinky4
												{
													OFFSET -0.000000 2.639709 0.000000
													CHANNELS 3 Zrotation Yrotation Xrotation
													End Site
													{
														OFFSET 0.000000 0.000000 0.000000
													}
												}
											}
										}
									}
									JOINT RightForeArmEnd
									{
										OFFSET 0.000000 0.000000 0.000000
										CHANNELS 3 Zrotation Yrotation Xrotation
										End Site
										{
											OFFSET 0.000000 0.000000 0.000000
										}
									}
								}
								JOINT RightArmEnd
								{
									OFFSET 0.000000 0.000000 0.000000
									CHANNELS 3 Zrotation Yrotation Xrotation
									End Site
									{
										OFFSET 0.000000 0.000000 0.000000
									}
								}
							}
						}
					}
					JOINT LeftShoulder
					{
						OFFSET 2.625389 11.175210 0.000000
						CHANNELS 3 Zrotation Yrotation Xrotation
						JOINT LeftArm
						{
							OFFSET 0.000000 10.813635 -0.000000
							CHANNELS 3 Zrotation Yrotation Xrotation
							JOINT LeftForeArm
							{
								OFFSET 0.000000 28.724781 0.000000
								CHANNELS 3 Zrotation Yrotation Xrotation
								JOINT LeftHand
								{
									OFFSET 0.644384 25.716167 -0.328871
									CHANNELS 3 Zrotation Yrotation Xrotation
									JOINT LeftHandThumb1
									{
										OFFSET 2.867323 3.959563 2.944291
										CHANNELS 3 Zrotation Yrotation Xrotation
										JOINT LeftHandThumb2
										{
											OFFSET 0.000000 3.350399 0.000000
											CHANNELS 3 Zrotation Yrotation Xrotation
											JOINT LeftHandThumb3
											{
												OFFSET -0.000000 3.756509 0.000000
												CHANNELS 3 Zrotation Yrotation Xrotation
												JOINT LeftHandThumb4
												{
													OFFSET -0.000000 3.100000 0.000000
													CHANNELS 3 Zrotation Yrotation Xrotation
													End Site
													{
														OFFSET 0.000000 0.000000 0.000000
													}
												}
											}
										}
									}
									JOINT LeftHandIndex1
									{
										OFFSET 0.086752 10.030893 2.345280
										CHANNELS 3 Zrotation Yrotation Xrotation
										JOINT LeftHandIndex2
										{
											OFFSET -0.000000 4.061090 -0.000000
											CHANNELS 3 Zrotation Yrotation Xrotation
											JOINT LeftHandIndex3
											{
												OFFSET 0.000000 3.248873 -0.000000
												CHANNELS 3 Zrotation Yrotation Xrotation
												JOINT LeftHandIndex4
												{
													OFFSET 0.000000 2.639709 -0.000000
													CHANNELS 3 Zrotation Yrotation Xrotation
													End Site
													{
														OFFSET 0.000000 0.000000 0.000000
													}
												}
											}
										}
									}
									JOINT LeftHandMiddle1
									{
										OFFSET -0.104102 9.502952 0.006768
										CHANNELS 3 Zrotation Yrotation Xrotation
										JOINT LeftHandMiddle2
										{
											OFFSET -0.000000 4.568727 -0.000000
											CHANNELS 3 Zrotation Yrotation Xrotation
											JOINT LeftHandMiddle3
											{
												OFFSET 0.000000 3.654981 0.000000
												CHANNELS 3 Zrotation Yrotation Xrotation
												JOINT LeftHandMiddle4
												{
													OFFSET 0.000000 2.741236 -0.000000
													CHANNELS 3 Zrotation Yrotation Xrotation
													End Site
													{
														OFFSET 0.000000 0.000000 0.000000
													}
												}
											}
										}
									}
									JOINT LeftHandRing1
									{
										OFFSET -0.086752 8.921708 -2.267442
										CHANNELS 3 Zrotation Yrotation Xrotation
										JOINT LeftHandRing2
										{
											OFFSET 0.000000 4.061090 0.000000
											CHANNELS 3 Zrotation Yrotation Xrotation
											JOINT LeftHandRing3
											{
												OFFSET 0.000000 3.654981 0.000000
												CHANNELS 3 Zrotation Yrotation Xrotation
												JOINT LeftHandRing4
												{
													OFFSET 0.000000 2.741236 0.000000
													CHANNELS 3 Zrotation Yrotation Xrotation
													End Site
													{
														OFFSET 0.000000 0.000000 0.000000
													}
												}
											}
										}
									}
									JOINT LeftHandPinky1
									{
										OFFSET 0.173504 7.976997 -4.467199
										CHANNELS 3 Zrotation Yrotation Xrotation
										JOINT LeftHandPinky2
										{
											OFFSET -0.000000 3.350399 -0.000000
											CHANNELS 3 Zrotation Yrotation Xrotation
											JOINT LeftHandPinky3
											{
												OFFSET 0.000000 2.842763 0.000000
												CHANNELS 3 Zrotation Yrotation Xrotation
												JOINT LeftHandPinky4
												{
													OFFSET -0.000000 2.639709 -0.000000
													CHANNELS 3 Zrotation Yrotation Xrotation
													End Site
													{
														OFFSET 0.000000 0.000000 0.000000
													}
												}
											}
										}
									}
									JOINT LeftForeArmEnd
									{
										OFFSET 0.000000 0.000000 0.000000
										CHANNELS 3 Zrotation Yrotation Xrotation
										End Site
										{
											OFFSET 0.000000 0.000000 0.000000
										}
									}
								}
								JOINT LeftArmEnd
								{
									OFFSET 0.000000 0.000000 0.000000
									CHANNELS 3 Zrotation Yrotation Xrotation
									End Site
									{
										OFFSET 0.000000 0.000000 0.000000
									}
								}
							}
						}
					}
				}
			}
		}
	}
	JOINT RightUpLeg
	{
		OFFSET -11.289943 0.000000 0.000000
		CHANNELS 3 Zrotation Yrotation Xrotation
		JOINT RightLeg
		{
			OFFSET 0.000000 -38.200325 0.000000
			CHANNELS 3 Zrotation Yrotation Xrotation
			JOINT RightFoot
			{
				OFFSET -0.000000 -39.900856 -0.000000
				CHANNELS 3 Zrotation Yrotation Xrotation
				JOINT RightToeBase
				{
					OFFSET 0.000000 0.000000 15.261641
					CHANNELS 3 Zrotation Yrotation Xrotation
					JOINT RightToeBaseEnd
					{
						OFFSET 0.000000 0.000000 7.370709
						CHANNELS 3 Zrotation Yrotation Xrotation
						End Site
						{
							OFFSET 0.000000 0.000000 0.000000
						}
					}
				}
				JOINT RightLegEnd
				{
					OFFSET 0.000000 0.000000 0.000000
					CHANNELS 3 Zrotation Yrotation Xrotation
					End Site
					{
						OFFSET 0.000000 0.000000 0.000000
					}
				}
			}
			JOINT RightUpLegEnd
			{
				OFFSET 0.000000 0.000000 0.000000
				CHANNELS 3 Zrotation Yrotation Xrotation
				End Site
				{
					OFFSET 0.000000 0.000000 0.000000
				}
			}
		}
	}
	JOINT LeftUpLeg
	{
		OFFSET 11.315661 -0.000000 0.000000
		CHANNELS 3 Zrotation Yrotation Xrotation
		JOINT LeftLeg
		{
			OFFSET -0.000000 -38.200325 -0.000000
			CHANNELS 3 Zrotation Yrotation Xrotation
			JOINT LeftFoot
			{
				OFFSET 0.000000 -39.900856 -0.000000
				CHANNELS 3 Zrotation Yrotation Xrotation
				JOINT LeftToeBase
				{
					OFFSET -0.000000 -0.000000 15.261641
					CHANNELS 3 Zrotation Yrotation Xrotation
					JOINT LeftToeBaseEnd
					{
						OFFSET 0.000000 -0.000000 7.539996
						CHANNELS 3 Zrotation Yrotation Xrotation
						End Site
						{
							OFFSET 0.000000 0.000000 0.000000
						}
					}
				}
				JOINT LeftLegEnd
				{
					OFFSET 0.000000 0.000000 0.000000
					CHANNELS 3 Zrotation Yrotation Xrotation
					End Site
					{
						OFFSET 0.000000 0.000000 0.000000
					}
				}
			}
			JOINT LeftUpLegEnd
			{
				OFFSET 0.000000 0.000000 0.000000
				CHANNELS 3 Zrotation Yrotation Xrotation
				End Site
				{
					OFFSET 0.000000 0.000000 0.000000
				}
			}
		}
	}
}
MOTION
Frames: 4
Frame Time: 0.016667
0.368989 88.831978 2.983855 -0.078674 -0.804609 -9.466225 0.887895 0.012466 7.101191 -0.418084 0.129303 2.818126 0.300248 -1.022482 3.288614 -0.723024 0.029074 4.197644 1.706111 1.137195 4.493051 0.482800 1.897525 -3.264996 -0.706368 -0.798315 -19.216665 0.000000 0.000000 0.000000 93.353912 -0.331080 9.835823 65.683823 -27.881086 4.047042 0.358506 16.618879 24.298641 4.157213 9.985218 -7.314487 19.336571 30.319536 62.645618 -7.790579 -11.145501 -18.850760 -5.815056 -7.371826 -13.062541 0.000000 0.000000 0.000000 8.996646 -10.483652 0.877212 8.119205 0.468270 0.981912 7.886276 0.027926 1.008562 0.000000 0.000000 0.000000 8.180726 -4.896388 -0.161380 6.747186 0.482126 0.378035 7.122270 -0.009748 0.341828 0.000000 0.000000 0.000000 8.721099 2.983331 -0.180588 6.963293 -0.950573 -0.661274 6.863360 0.020127 -0.475061 0.000000 0.000000 0.000000 8.022305 11.385008 -1.334552 6.453055 -1.825041 -2.046794 6.216441 0.118534 -1.715609 0.000000 0.000000 0.000000 0.000000 0.000000 0.000000 0.000000 0.000000 0.000000 -90.030289 0.080975 5.721690 -71.738937 15.054476 -6.227648 -1.023642 -12.470959 44.591480 2.195844 -16.223814 -15.579496 -18.342215 -30.597317 63.512962 6.927536 9.173466 -15.846142 4.988861 6.138691 -11.242118 0.000000 0.000000 0.000000 -4.547889 -8.137705 5.361601 -4.341953 0.455167 -0.866589 -4.388379 -0.007389 -0.847641 0.000000 0.000000 0.000000 -5.228505 -2.698021 2.678517 -4.190962 0.465507 -0.383500 -4.372088 -0.022491 -0.317884 0.000000 0.000000 0.000000 -8.717813 5.805389 -0.032406 -5.948888 -0.956991 0.674804 -5.911545 0.019428 0.544523 0.000000 0.000000 0.000000 -12.134538 14.963175 -3.469542 -7.705572 -1.783767 2.390910 -7.380211 0.189816 2.114989 0.000000 0.000000 0.000000 0.000000 0.000000 0.000000 0.000000 0.000000 0.000000 -0.377713 -8.876349 13.848145 -0.066086 -0.676979 4.909702 -2.996717 -7.812647 17.435640 -0.823846 0.790058 -18.630140 0.000000 0.000000 0.000000 0.000000 0.000000 0.000000 0.000000 0.000000 0.000000 -1.647009 -5.979378 8.468801 0.064161 0.312230 9.541174 3.978102 -0.342193 17.050810 0.294032 -0.434066 -20.591673 0.000000 0.000000 0.000000 0.000000 0.000000 0.000000 0.000000 0.000000 0.000000 
0.378190 88.835381 3.001929 -0.070438 -0.850938 -9.473908 0.878542 0.015365 7.117483 -0.409932 0.124831 2.793682 0.263320 -1.009503 3.330604 -0.726938 0.022816 4.178722 1.711115 1.141108 4.453259 0.478638 1.902033 -3.285646 -0.712497 -0.800060 -19.159367 0.000000 0.000000 0.000000 93.365242 -0.336068 9.872059 65.625427 -27.984665 4.088131 0.358164 16.591045 24.210043 4.390852 9.990847 -7.310951 19.362978 30.310152 62.619053 -7.817504 -11.193784 -18.929520 -5.836545 -7.405580 -13.117976 0.000000 0.000000 0.000000 9.218191 -10.508146 0.767675 8.176766 0.464440 0.989967 7.944596 0.024034 1.015698 0.000000 0.000000 0.000000 8.394074 -4.928467 -0.236550 6.812047 0.480668 0.382443 7.191565 -0.011296 0.345349 0.000000 0.000000 0.000000 8.927184 2.945257 -0.208851 7.054665 -0.949489 -0.663375 6.956187 0.020963 -0.476591 0.000000 0.000000 0.000000 8.216741 11.349166 -1.306621 6.549021 -1.821527 -2.048266 6.308328 0.120849 -1.719381 0.000000 0.000000 0.000000 0.000000 0.000000 0.000000 0.000000 0.000000 0.000000 -90.029961 0.073949 5.748205 -71.772148 15.166082 -6.264330 -1.051247 -12.367985 44.398365 2.012980 -16.269258 -15.675655 -18.374022 -30.585981 63.475861 6.966138 9.243497 -15.949128 5.020967 6.185877 -11.319997 0.000000 0.000000 0.000000 -4.824473 -8.079555 5.148200 -4.410225 0.452484 -0.874033 -4.455010 -0.009746 -0.854002 0.000000 0.000000 0.000000 -5.470874 -2.651799 2.523361 -4.251396 0.464588 -0.385857 -4.424608 -0.023293 -0.320209 0.000000 0.000000 0.000000 -8.910774 5.833017 -0.112553 -5.992186 -0.956160 0.676705 -5.949450 0.020147 0.546009 0.000000 0.000000 0.000000 -12.274857 14.965108 -3.459181 -7.721099 -1.781007 2.386417 -7.405211 0.191549 2.115121 0.000000 0.000000 0.000000 0.000000 0.000000 0.000000 0.000000 0.000000 0.000000 -0.406092 -8.881702 13.865153 -0.066209 -0.676884 4.895656 -2.984283 -7.811331 17.446907 -0.821714 0.790216 -18.624720 0.000000 0.000000 0.000000 0.000000 0.000000 0.000000 0.000000 0.000000 0.000000 -1.666036 -5.958778 8.467134 0.063940 0.313342 9.493332 3.992178 -0.335381 17.086943 0.295387 -0.435043 -20.604290 0.000000 0.000000 0.000000 0.000000 0.000000 0.000000 0.000000 0.000000 0.000000 
0.387333 88.839355 3.021281 -0.064706 -0.896717 -9.475877 0.871093 0.017126 7.130415 -0.405799 0.120131 2.765949 0.232489 -1.003861 3.370352 -0.731070 0.015236 4.156404 1.706880 1.148800 4.405504 0.472695 1.909182 -3.309542 -0.718768 -0.801358 -19.101862 0.000000 0.000000 0.000000 93.376869 -0.342250 9.901958 65.580460 -28.053999 4.125374 0.356825 16.567623 24.154575 4.599791 9.983908 -7.297618 19.391087 30.299755 62.589233 -7.848187 -11.246578 -19.016735 -5.860464 -7.442263 -13.179356 0.000000 0.000000 0.000000 9.456843 -10.533331 0.667327 8.239992 0.459624 0.999873 8.008599 0.019287 1.024581 0.000000 0.000000 0.000000 8.621763 -4.962114 -0.305310 6.883138 0.478735 0.387715 7.266655 -0.013175 0.349580 0.000000 0.000000 0.000000 9.140564 2.905340 -0.233120 7.150612 -0.947645 -0.666343 7.053282 0.022297 -0.478954 0.000000 0.000000 0.000000 8.410383 11.312200 -1.275912 6.645831 -1.815972 -2.052776 6.400075 0.124660 -1.725910 0.000000 0.000000 0.000000 0.000000 0.000000 0.000000 0.000000 0.000000 0.000000 -90.032875 0.067412 5.779639 -71.801834 15.288917 -6.292026 -1.075372 -12.261959 44.223110 1.817697 -16.305504 -15.756050 -18.413172 -30.572041 63.431309 7.013290 9.327741 -16.075521 5.059692 6.242642 -11.413507 0.000000 0.000000 0.000000 -5.157602 -8.009822 4.921052 -4.498451 0.448803 -0.884481 -4.541127 -0.013065 -0.863338 0.000000 0.000000 0.000000 -5.765653 -2.595620 2.358665 -4.332451 0.463221 -0.389410 -4.498492 -0.024433 -0.323685 0.000000 0.000000 0.000000 -9.150567 5.868433 -0.196267 -6.057634 -0.954717 0.680315 -6.009737 0.021370 0.548641 0.000000 0.000000 0.000000 -12.453672 14.971813 -3.446033 -7.757965 -1.776597 2.385871 -7.450793 0.194646 2.118403 0.000000 0.000000 0.000000 0.000000 0.000000 0.000000 0.000000 0.000000 0.000000 -0.433758 -8.888299 13.877637 -0.066225 -0.676593 4.882909 -2.968727 -7.817405 17.461002 -0.819627 0.790355 -18.622810 0.000000 0.000000 0.000000 0.000000 0.000000 0.000000 0.000000 0.000000 0.000000 -1.686139 -5.938757 8.457199 0.063761 0.314743 9.444573 4.011809 -0.333569 17.127562 0.296095 -0.435437 -20.620874 0.000000 0.000000 0.000000 0.000000 0.000000 0.000000 0.000000 0.000000 0.000000 
0.396020 88.843407 3.041989 -0.061569 -0.940811 -9.473949 0.865317 0.017846 7.140703 -0.406015 0.115275 2.736156 0.208462 -1.005978 3.407355 -0.734817 0.006175 4.132076 1.695671 1.158914 4.353313 0.465295 1.917940 -3.334319 -0.724976 -0.802054 -19.045605 0.000000 0.000000 0.000000 93.390266 -0.349733 9.925639 65.546570 -28.088867 4.161013 0.354692 16.551762 24.129196 4.779001 9.959868 -7.278155 19.421337 30.288527 62.556503 -7.881985 -11.304386 -19.112144 -5.886659 -7.482183 -13.246651 0.000000 0.000000 0.000000 9.709633 -10.560101 0.571661 8.311893 0.454252 1.010824 8.081093 0.014095 1.034452 0.000000 0.000000 0.000000 8.861601 -4.997450 -0.371355 6.963133 0.476547 0.393397 7.349981 -0.015215 0.354174 0.000000 0.000000 0.000000 9.359657 2.864390 -0.255817 7.253446 -0.945356 -0.669736 7.156810 0.023929 -0.481746 0.000000 0.000000 0.000000 8.601816 11.275340 -1.244202 6.745879 -1.809214 -2.059205 6.494078 0.129345 -1.734007 0.000000 0.000000 0.000000 0.000000 0.000000 0.000000 0.000000 0.000000 0.000000 -90.039360 0.061502 5.816187 -71.829025 15.416986 -6.311289 -1.095960 -12.157180 44.073032 1.607337 -16.339735 -15.819421 -18.459507 -30.555529 63.379631 7.068818 9.425534 -16.224463 5.104808 6.308579 -11.522181 0.000000 0.000000 0.000000 -5.543265 -7.929093 4.681815 -4.606377 0.444348 -0.897631 -4.646663 -0.017118 -0.875309 0.000000 0.000000 0.000000 -6.110531 -2.530012 2.185845 -4.433998 0.461491 -0.394023 -4.593791 -0.025850 -0.328181 0.000000 0.000000 0.000000 -9.435636 5.911345 -0.282555 -6.145518 -0.952755 0.685457 -6.092378 0.023005 0.552347 0.000000 0.000000 0.000000 -12.670765 14.983407 -3.429178 -7.816712 -1.770875 2.388955 -7.517638 0.198821 2.124553 0.000000 0.000000 0.000000 0.000000 0.000000 0.000000 0.000000 0.000000 0.000000 -0.458668 -8.896035 13.888921 -0.066109 -0.676150 4.869146 -2.951858 -7.829683 17.475489 -0.817714 0.790727 -18.621742 0.000000 0.000000 0.000000 0.000000 0.000000 0.000000 0.000000 0.000000 0.000000 -1.704667 -5.920121 8.441725 0.063639 0.316318 9.397266 4.034938 -0.336003 17.168730 0.296409 -0.435280 -20.639225 0.000000 0.000000 0.000000 0.000000 0.000000 0.000000 0.000000 0.000000 0.000000 
